<svg xmlns="http://www.w3.org/2000/svg" style="display: none;">
  <defs>
    <linearGradient id="iconGradient" x1="0%" y1="0%" x2="100%" y2="100%">
      <stop offset="0%" style="stop-color:#3b82f6;stop-opacity:1" />
      <stop offset="100%" style="stop-color:#1d4ed8;stop-opacity:1" />
    </linearGradient>
  </defs>

  <!-- Network Icon -->
  <symbol id="icon-network" viewBox="0 0 24 24">
    <circle cx="12" cy="4" r="2" fill="url(#iconGradient)" />
    <circle cx="4" cy="12" r="2" fill="url(#iconGradient)" />
    <circle cx="20" cy="12" r="2" fill="url(#iconGradient)" />
    <circle cx="8" cy="20" r="2" fill="url(#iconGradient)" />
    <circle cx="16" cy="20" r="2" fill="url(#iconGradient)" />
    <line x1="12" y1="4" x2="4" y2="12" stroke="#3b82f6" stroke-width="1.5" />
    <line x1="12" y1="4" x2="20" y2="12" stroke="#3b82f6" stroke-width="1.5" />
    <line x1="4" y1="12" x2="8" y2="20" stroke="#3b82f6" stroke-width="1.5" />
    <line x1="20" y1="12" x2="16" y2="20" stroke="#3b82f6" stroke-width="1.5" />
    <line x1="8" y1="20" x2="16" y2="20" stroke="#3b82f6" stroke-width="1.5" />
  </symbol>

  <!-- Dashboard Icon -->
  <symbol id="icon-dashboard" viewBox="0 0 24 24">
    <rect x="3" y="3" width="18" height="18" rx="2" fill="none" stroke="url(#iconGradient)" stroke-width="2" />
    <rect x="5" y="5" width="6" height="6" rx="1" fill="url(#iconGradient)" opacity="0.8" />
    <rect x="13" y="5" width="6" height="6" rx="1" fill="url(#iconGradient)" opacity="0.6" />
    <rect x="5" y="13" width="6" height="6" rx="1" fill="url(#iconGradient)" opacity="0.6" />
    <rect x="13" y="13" width="6" height="6" rx="1" fill="url(#iconGradient)" opacity="0.4" />
  </symbol>

  <!-- Analytics Icon -->
  <symbol id="icon-analytics" viewBox="0 0 24 24">
    <path d="M3 3v18h18" fill="none" stroke="url(#iconGradient)" stroke-width="2" stroke-linecap="round" />
    <path d="M18 9l-5 5-4-4-3 3" fill="none" stroke="url(#iconGradient)" stroke-width="2" stroke-linecap="round" stroke-linejoin="round" />
  </symbol>

  <!-- SDG Icon -->
  <symbol id="icon-sdg" viewBox="0 0 24 24">
    <circle cx="12" cy="12" r="10" fill="none" stroke="url(#iconGradient)" stroke-width="2" />
    <circle cx="12" cy="12" r="4" fill="url(#iconGradient)" opacity="0.8" />
    <circle cx="12" cy="6" r="2" fill="url(#iconGradient)" opacity="0.6" />
    <circle cx="18" cy="12" r="2" fill="url(#iconGradient)" opacity="0.6" />
    <circle cx="12" cy="18" r="2" fill="url(#iconGradient)" opacity="0.6" />
    <circle cx="6" cy="12" r="2" fill="url(#iconGradient)" opacity="0.6" />
  </symbol>

  <!-- Decision Icon -->
  <symbol id="icon-decision" viewBox="0 0 24 24">
    <path d="M12 2L2 7l10 5 10-5-10-5z" fill="url(#iconGradient)" opacity="0.8" />
    <path d="M2 17l10 5 10-5" fill="none" stroke="url(#iconGradient)" stroke-width="2" stroke-linecap="round" stroke-linejoin="round" />
    <path d="M2 12l10 5 10-5" fill="none" stroke="url(#iconGradient)" stroke-width="2" stroke-linecap="round" stroke-linejoin="round" />
  </symbol>

  <!-- Impact Icon -->
  <symbol id="icon-impact" viewBox="0 0 24 24">
    <circle cx="12" cy="12" r="8" fill="none" stroke="url(#iconGradient)" stroke-width="2" />
    <path d="M12 6v6l4 2" fill="none" stroke="url(#iconGradient)" stroke-width="2" stroke-linecap="round" stroke-linejoin="round" />
  </symbol>

  <!-- Risk Icon -->
  <symbol id="icon-risk" viewBox="0 0 24 24">
    <path d="M12 2L2 22h20L12 2z" fill="none" stroke="url(#iconGradient)" stroke-width="2" stroke-linecap="round" stroke-linejoin="round" />
    <line x1="12" y1="9" x2="12" y2="13" stroke="url(#iconGradient)" stroke-width="2" stroke-linecap="round" />
    <line x1="12" y1="17" x2="12.01" y2="17" stroke="url(#iconGradient)" stroke-width="2" stroke-linecap="round" />
  </symbol>

  <!-- Synergy Icon -->
  <symbol id="icon-synergy" viewBox="0 0 24 24">
    <circle cx="8" cy="12" r="4" fill="url(#iconGradient)" opacity="0.8" />
    <circle cx="16" cy="12" r="4" fill="url(#iconGradient)" opacity="0.6" />
    <path d="M12 8c2 0 4 2 4 4s-2 4-4 4" fill="none" stroke="url(#iconGradient)" stroke-width="2" stroke-linecap="round" />
  </symbol>

  <!-- Sustainability Icon -->
  <symbol id="icon-sustainability" viewBox="0 0 24 24">
    <path d="M12 2C6.48 2 2 6.48 2 12s4.48 10 10 10 10-4.48 10-10S17.52 2 12 2zm-1 17.93c-3.95-.49-7-3.85-7-7.93 0-.62.08-1.21.21-1.79L9 15v1c0 1.1.9 2 2 2v1.93zm6.9-2.54c-.26-.81-1-1.39-1.9-1.39h-1v-3c0-.55-.45-1-1-1H8v-2h2c.55 0 1-.45 1-1V7h2c1.1 0 2-.9 2-2v-.41c2.93 1.19 5 4.06 5 7.41 0 2.08-.8 3.97-2.1 5.39z" fill="url(#iconGradient)" opacity="0.8" />
  </symbol>

  <!-- Feasibility Icon -->
  <symbol id="icon-feasibility" viewBox="0 0 24 24">
    <path d="M9 16.17L4.83 12l-1.42 1.41L9 19 21 7l-1.41-1.41L9 16.17z" fill="url(#iconGradient)" />
  </symbol>

  <!-- Settings Icon -->
  <symbol id="icon-settings" viewBox="0 0 24 24">
    <circle cx="12" cy="12" r="3" fill="none" stroke="url(#iconGradient)" stroke-width="2" />
    <path d="M19.4 15a1.65 1.65 0 0 0 .33 1.82l.06.06a2 2 0 0 1 0 2.83 2 2 0 0 1-2.83 0l-.06-.06a1.65 1.65 0 0 0-1.82-.33 1.65 1.65 0 0 0-1 1.51V21a2 2 0 0 1-2 2 2 2 0 0 1-2-2v-.09A1.65 1.65 0 0 0 9 19.4a1.65 1.65 0 0 0-1.82.33l-.06.06a2 2 0 0 1-2.83 0 2 2 0 0 1 0-2.83l.06-.06a1.65 1.65 0 0 0 .33-1.82 1.65 1.65 0 0 0-1.51-1H3a2 2 0 0 1-2-2 2 2 0 0 1 2-2h.09A1.65 1.65 0 0 0 4.6 9a1.65 1.65 0 0 0-.33-1.82l-.06-.06a2 2 0 0 1 0-2.83 2 2 0 0 1 2.83 0l.06.06a1.65 1.65 0 0 0 1.82.33H9a1.65 1.65 0 0 0 1-1.51V3a2 2 0 0 1 2-2 2 2 0 0 1 2 2v.09a1.65 1.65 0 0 0 1 1.51 1.65 1.65 0 0 0 1.82-.33l.06-.06a2 2 0 0 1 2.83 0 2 2 0 0 1 0 2.83l-.06.06a1.65 1.65 0 0 0-.33 1.82V9a1.65 1.65 0 0 0 1.51 1H21a2 2 0 0 1 2 2 2 2 0 0 1-2 2h-.09a1.65 1.65 0 0 0-1.51 1z" fill="none" stroke="url(#iconGradient)" stroke-width="2" />
  </symbol>

  <!-- Search Icon -->
  <symbol id="icon-search" viewBox="0 0 24 24">
    <circle cx="11" cy="11" r="8" fill="none" stroke="url(#iconGradient)" stroke-width="2" />
    <line x1="21" y1="21" x2="16.65" y2="16.65" stroke="url(#iconGradient)" stroke-width="2" stroke-linecap="round" />
  </symbol>

  <!-- Menu Icon -->
  <symbol id="icon-menu" viewBox="0 0 24 24">
    <line x1="3" y1="12" x2="21" y2="12" stroke="url(#iconGradient)" stroke-width="2" stroke-linecap="round" />
    <line x1="3" y1="6" x2="21" y2="6" stroke="url(#iconGradient)" stroke-width="2" stroke-linecap="round" />
    <line x1="3" y1="18" x2="21" y2="18" stroke="url(#iconGradient)" stroke-width="2" stroke-linecap="round" />
  </symbol>

  <!-- Close Icon -->
  <symbol id="icon-close" viewBox="0 0 24 24">
    <line x1="18" y1="6" x2="6" y2="18" stroke="url(#iconGradient)" stroke-width="2" stroke-linecap="round" />
    <line x1="6" y1="6" x2="18" y2="18" stroke="url(#iconGradient)" stroke-width="2" stroke-linecap="round" />
  </symbol>

  <!-- Plus Icon -->
  <symbol id="icon-plus" viewBox="0 0 24 24">
    <line x1="12" y1="5" x2="12" y2="19" stroke="url(#iconGradient)" stroke-width="2" stroke-linecap="round" />
    <line x1="5" y1="12" x2="19" y2="12" stroke="url(#iconGradient)" stroke-width="2" stroke-linecap="round" />
  </symbol>

  <!-- Minus Icon -->
  <symbol id="icon-minus" viewBox="0 0 24 24">
    <line x1="5" y1="12" x2="19" y2="12" stroke="url(#iconGradient)" stroke-width="2" stroke-linecap="round" />
  </symbol>

  <!-- Check Icon -->
  <symbol id="icon-check" viewBox="0 0 24 24">
    <polyline points="20 6 9 17 4 12" fill="none" stroke="url(#iconGradient)" stroke-width="2" stroke-linecap="round" stroke-linejoin="round" />
  </symbol>

  <!-- Info Icon -->
  <symbol id="icon-info" viewBox="0 0 24 24">
    <circle cx="12" cy="12" r="10" fill="none" stroke="url(#iconGradient)" stroke-width="2" />
    <line x1="12" y1="16" x2="12" y2="12" stroke="url(#iconGradient)" stroke-width="2" stroke-linecap="round" />
    <line x1="12" y1="8" x2="12.01" y2="8" stroke="url(#iconGradient)" stroke-width="2" stroke-linecap="round" />
  </symbol>

  <!-- Warning Icon -->
  <symbol id="icon-warning" viewBox="0 0 24 24">
    <path d="M10.29 3.86L1.82 18a2 2 0 0 0 1.71 3h16.94a2 2 0 0 0 1.71-3L13.71 3.86a2 2 0 0 0-3.42 0z" fill="none" stroke="url(#iconGradient)" stroke-width="2" stroke-linecap="round" stroke-linejoin="round" />
    <line x1="12" y1="9" x2="12" y2="13" stroke="url(#iconGradient)" stroke-width="2" stroke-linecap="round" />
    <line x1="12" y1="17" x2="12.01" y2="17" stroke="url(#iconGradient)" stroke-width="2" stroke-linecap="round" />
  </symbol>

  <!-- Download Icon -->
  <symbol id="icon-download" viewBox="0 0 24 24">
    <path d="M21 15v4a2 2 0 0 1-2 2H5a2 2 0 0 1-2-2v-4" fill="none" stroke="url(#iconGradient)" stroke-width="2" stroke-linecap="round" stroke-linejoin="round" />
    <polyline points="7 10 12 15 17 10" fill="none" stroke="url(#iconGradient)" stroke-width="2" stroke-linecap="round" stroke-linejoin="round" />
    <line x1="12" y1="15" x2="12" y2="3" stroke="url(#iconGradient)" stroke-width="2" stroke-linecap="round" />
  </symbol>

  <!-- Upload Icon -->
  <symbol id="icon-upload" viewBox="0 0 24 24">
    <path d="M21 15v4a2 2 0 0 1-2 2H5a2 2 0 0 1-2-2v-4" fill="none" stroke="url(#iconGradient)" stroke-width="2" stroke-linecap="round" stroke-linejoin="round" />
    <polyline points="17 8 12 3 7 8" fill="none" stroke="url(#iconGradient)" stroke-width="2" stroke-linecap="round" stroke-linejoin="round" />
    <line x1="12" y1="3" x2="12" y2="15" stroke="url(#iconGradient)" stroke-width="2" stroke-linecap="round" />
  </symbol>

  <!-- Filter Icon -->
  <symbol id="icon-filter" viewBox="0 0 24 24">
    <polygon points="22 3 2 3 10 12.46 10 19 14 21 14 12.46 22 3" fill="none" stroke="url(#iconGradient)" stroke-width="2" stroke-linecap="round" stroke-linejoin="round" />
  </symbol>

  <!-- Sort Icon -->
  <symbol id="icon-sort" viewBox="0 0 24 24">
    <line x1="11" y1="4" x2="7" y2="20" stroke="url(#iconGradient)" stroke-width="2" stroke-linecap="round" />
    <line x1="17" y1="4" x2="13" y2="20" stroke="url(#iconGradient)" stroke-width="2" stroke-linecap="round" />
    <line x1="3" y1="4" x2="3.01" y2="4" stroke="url(#iconGradient)" stroke-width="2" stroke-linecap="round" />
    <line x1="7" y1="4" x2="7.01" y2="4" stroke="url(#iconGradient)" stroke-width="2" stroke-linecap="round" />
    <line x1="11" y1="4" x2="11.01" y2="4" stroke="url(#iconGradient)" stroke-width="2" stroke-linecap="round" />
  </symbol>

  <!-- Refresh Icon -->
  <symbol id="icon-refresh" viewBox="0 0 24 24">
    <path d="M23 4v6h-6" fill="none" stroke="url(#iconGradient)" stroke-width="2" stroke-linecap="round" stroke-linejoin="round" />
    <path d="M20.49 15a9 9 0 1 1-2.12-9.36L23 10" fill="none" stroke="url(#iconGradient)" stroke-width="2" stroke-linecap="round" stroke-linejoin="round" />
  </symbol>

  <!-- Share Icon -->
  <symbol id="icon-share" viewBox="0 0 24 24">
    <circle cx="18" cy="5" r="3" fill="url(#iconGradient)" opacity="0.8" />
    <circle cx="6" cy="12" r="3" fill="url(#iconGradient)" opacity="0.6" />
    <circle cx="18" cy="19" r="3" fill="url(#iconGradient)" opacity="0.4" />
    <line x1="8.59" y1="13.51" x2="15.42" y2="17.49" stroke="url(#iconGradient)" stroke-width="2" stroke-linecap="round" />
    <line x1="15.41" y1="6.51" x2="8.59" y2="10.49" stroke="url(#iconGradient)" stroke-width="2" stroke-linecap="round" />
  </symbol>

  <!-- External Link Icon -->
  <symbol id="icon-external" viewBox="0 0 24 24">
    <path d="M18 13v6a2 2 0 0 1-2 2H5a2 2 0 0 1-2-2V8a2 2 0 0 1 2-2h6" fill="none" stroke="url(#iconGradient)" stroke-width="2" stroke-linecap="round" stroke-linejoin="round" />
    <polyline points="15 3 21 3 21 9" fill="none" stroke="url(#iconGradient)" stroke-width="2" stroke-linecap="round" stroke-linejoin="round" />
    <line x1="10" y1="14" x2="21" y2="3" stroke="url(#iconGradient)" stroke-width="2" stroke-linecap="round" />
  </symbol>

  <!-- GitHub Icon -->
  <symbol id="icon-github" viewBox="0 0 24 24">
    <path d="M9 19c-5 1.5-5-2.5-7-3m14 6v-3.87a3.37 3.37 0 0 0-.94-2.61c3.14-.35 6.44-1.54 6.44-7A5.44 5.44 0 0 0 20 4.77 5.07 5.07 0 0 0 19.91 1S18.73.65 16 2.48a13.38 13.38 0 0 0-7 0C6.27.65 5.09 1 5.09 1A5.07 5.07 0 0 0 5 4.77a5.44 5.44 0 0 0-1.5 3.78c0 5.42 3.3 6.61 6.44 7A3.37 3.37 0 0 0 9 18.13V22" fill="none" stroke="url(#iconGradient)" stroke-width="2" stroke-linecap="round" stroke-linejoin="round" />
  </symbol>

  <!-- Documentation Icon -->
  <symbol id="icon-docs" viewBox="0 0 24 24">
    <path d="M14 2H6a2 2 0 0 0-2 2v16a2 2 0 0 0 2 2h12a2 2 0 0 0 2-2V8z" fill="none" stroke="url(#iconGradient)" stroke-width="2" stroke-linecap="round" stroke-linejoin="round" />
    <polyline points="14 2 14 8 20 8" fill="none" stroke="url(#iconGradient)" stroke-width="2" stroke-linecap="round" stroke-linejoin="round" />
    <line x1="16" y1="13" x2="8" y2="13" stroke="url(#iconGradient)" stroke-width="2" stroke-linecap="round" />
    <line x1="16" y1="17" x2="8" y2="17" stroke="url(#iconGradient)" stroke-width="2" stroke-linecap="round" />
    <line x1="10" y1="9" x2="8" y2="9" stroke="url(#iconGradient)" stroke-width="2" stroke-linecap="round" />
  </symbol>
</svg>
